<svg width="614" height="256" xmlns="http://www.w3.org/2000/svg">
 <defs>
  <clipPath id="clip0_1_2">
   <rect width="614" id="svg_1" height="256" fill="white"/>
  </clipPath>
 </defs>
 <g>
  <title>background</title>
  <rect fill="none" id="canvas_background" height="402" width="582" y="-1" x="-1"/>
 </g>
 <g class="layer">
  <title>Layer 1</title>
  <g id="svg_2" clip-path="url(#clip0_1_2)">
   <path id="svg_3" fill="#5865F2" d="m470.09,0l-326.18,0c-79.48,0 -143.91,26.86 -143.91,60l0,136c0,33.14 64.43,60 143.91,60l326.18,0c79.48,0 143.91,-26.86 143.91,-60l0,-136c0,-33.14 -64.43,-60 -143.91,-60z"/>
   <mask y="51" x="58" width="200" maskUnits="userSpaceOnUse" id="mask0_1_2" height="155">
    <path id="svg_4" fill="white" d="m258,51l-200,0l0,154.93l200,0l0,-154.93z"/>
   </mask>
   <g mask="url(#mask0_1_2)" id="svg_5">
    <path id="svg_6" fill="white" d="m227.31,64.8c-12.75,-5.85 -26.42,-10.16 -40.71,-12.63c-0.26,-0.05 -0.52,0.07 -0.66,0.31c-1.75,3.13 -3.7,7.21 -5.06,10.41c-15.38,-2.3 -30.67,-2.3 -45.73,0c-1.36,-3.28 -3.38,-7.28 -5.15,-10.41c-0.13,-0.23 -0.39,-0.35 -0.65,-0.31c-14.28,2.46 -27.95,6.77 -40.71,12.63c-0.11,0.04 -0.2,0.12 -0.27,0.23c-25.93,38.73 -33.03,76.52 -29.54,113.83c0.01,0.19 0.11,0.36 0.26,0.47c17.1,12.56 33.67,20.19 49.94,25.25c0.26,0.08 0.53,-0.02 0.7,-0.23c3.85,-5.26 7.27,-10.8 10.22,-16.62c0.17,-0.34 0,-0.75 -0.35,-0.88c-5.44,-2.07 -10.62,-4.58 -15.6,-7.44c-0.4,-0.23 -0.43,-0.79 -0.06,-1.06c1.04,-0.79 2.09,-1.61 3.09,-2.43c0.18,-0.15 0.44,-0.18 0.65,-0.09c32.73,14.95 68.17,14.95 100.51,0c0.21,-0.1 0.47,-0.07 0.66,0.08c1,0.83 2.05,1.65 3.1,2.44c0.36,0.27 0.34,0.83 -0.05,1.06c-4.99,2.91 -10.16,5.37 -15.61,7.43c-0.36,0.13 -0.51,0.55 -0.34,0.89c3,5.81 6.43,11.35 10.21,16.61c0.15,0.22 0.44,0.32 0.7,0.24c16.34,-5.06 32.91,-12.69 50.02,-25.25c0.15,-0.11 0.24,-0.28 0.26,-0.46c4.17,-43.14 -6.99,-80.61 -29.57,-113.84c-0.06,-0.11 -0.15,-0.19 -0.26,-0.23zm-102.48,91.34c-9.85,0 -17.97,-9.05 -17.97,-20.16c0,-11.11 7.96,-20.15 17.97,-20.15c10.09,0 18.14,9.12 17.98,20.15c0,11.11 -7.97,20.16 -17.98,20.16zm66.46,0c-9.85,0 -17.97,-9.05 -17.97,-20.16c0,-11.11 7.96,-20.15 17.97,-20.15c10.09,0 18.13,9.12 17.97,20.15c0,11.11 -7.88,20.16 -17.97,20.16z"/>
   </g>
   <path id="svg_8" fill="none" d="m370,104c-2.79,0 -3.51,0 -4.5,0c-0.99,0 -1.6,0 -2.44,0c-1.14,0 -2.1,0 -2.62,0c-0.56,0 -1.77,0 -2.41,0c-1.36,0 -2.07,0 -2.79,0c-0.73,0 -2.19,0 -2.91,0c-0.7,0 -1.38,0 -2.66,0c-1.13,0 -1.67,0 -2.73,0c-0.55,0 -1.12,0 -3.1,0c-0.78,0 -1.63,0 -2.53,0c-0.95,0 -1.95,0 -2.97,0c-1.06,0 -2.13,0 -4.33,0c-1.1,0 -2.19,0 -3.27,0c-1.06,0 -2.1,0 -3.11,0c-0.97,0 -1.9,0 -3.62,0c-0.77,0 -1.49,0 -2.18,0c-0.66,0 -1.3,0 -1.94,0c-0.64,0 -1.3,0 -2.72,0c-0.77,0 -1.59,0 -2.44,0c-0.88,0 -1.77,0 -2.67,0c-0.91,0 -1.81,0 -3.55,0c-0.83,0 -1.64,0 -2.41,0c-0.73,0 -1.43,0.01 -2.08,0.03c-0.61,0.02 -1.18,0.03 -2.18,0.13c-0.43,0.04 -0.81,0.11 -1.14,0.19c-0.3,0.07 -0.81,0.19 -1.8,0.56c-0.27,0.1 0.78,0.25 1.48,0.37c0.44,0.08 1.59,0.26 2.33,0.36c0.86,0.12 1.85,0.25 4.31,0.52c1.48,0.16 3.12,0.32 4.88,0.48c1.86,0.17 3.78,0.34 5.75,0.49c1.98,0.16 3.94,0.31 7.7,0.53c1.75,0.1 3.43,0.17 5.04,0.22c1.58,0.05 3.14,0.09 4.71,0.12c1.59,0.03 3.24,0.06 6.74,0.15c1.9,0.05 3.89,0.12 5.95,0.19c2.11,0.08 4.25,0.17 6.4,0.29c2.14,0.11 4.26,0.22 8.31,0.52c1.91,0.14 3.72,0.31 5.45,0.48c1.64,0.16 3.18,0.33 4.63,0.49c1.37,0.15 2.64,0.31 4.92,0.53c1.01,0.1 1.93,0.17 2.78,0.22c0.78,0.05 1.51,0.08 2.19,0.09c0.63,0.02 1.23,0.02 2.37,0.02c0.54,0 1.08,0 1.6,0c0.51,0 1,0 1.48,0c0.46,0 0.91,0 1.75,0c0.39,0 0.76,0 1.11,0c0.34,0 0.66,0 0.96,0c0.29,0 0.57,0 1.09,0c0.25,0 0.48,0 0.72,0c0.23,0 0.47,0 0.71,0c0.25,0 0.51,0 1.07,0c0.31,0 0.63,0 0.97,0c0.35,0 0.69,0 1.04,0c0.35,0 0.68,0 1.32,0c0.29,0 0.56,0 0.82,0c0.24,0 0.47,0 0.69,0l0.21,0l0.21,0"/>
   <polyline stroke-linecap="round" points="462 107 459.986 107 459.179 107 458 107 457.401 107 456.521 107 455.685 107 454.679 107.001 453.917 107.021 452.975 107.085 452.167 107.167 451.173 107.285 450.614 107.357 449.396 107.521 448.747 107.611 448.078 107.704 447.393 107.801 446 108 445.301 108.1 443.914 108.296 443.232 108.389 442.563 108.479 441.908 108.564 441.272 108.643" opacity="0.5" id="svg_9" fill="none"/>
   <text font-style="normal" font-weight="normal" xml:space="preserve" text-anchor="start" font-family="Sans-serif" font-size="122" id="svg_12" y="170" x="286.484375" fill-opacity="null" stroke-opacity="null" stroke-width="0" stroke="null" fill="#ffffff">engi4</text>
  </g>
 </g>
</svg>